<svg width="14" height="14" viewBox="0 0 14 14" fill="none" xmlns="http://www.w3.org/2000/svg">
<path d="M13.6667 10.2802V12.2802C13.6675 12.4659 13.6294 12.6497 13.555 12.8198C13.4807 12.9899 13.3716 13.1426 13.2348 13.2681C13.0979 13.3937 12.9364 13.4892 12.7605 13.5487C12.5847 13.6082 12.3983 13.6303 12.2134 13.6136C10.1619 13.3907 8.19137 12.6897 6.46004 11.5669C4.84926 10.5433 3.48359 9.17768 2.46004 7.56689C1.33336 5.8277 0.632199 3.84756 0.41337 1.78689C0.39671 1.60254 0.41862 1.41673 0.477704 1.24131C0.536787 1.06589 0.631751 0.904687 0.756547 0.767975C0.881344 0.631263 1.03324 0.522034 1.20256 0.447242C1.37189 0.37245 1.55493 0.333735 1.74004 0.333561H3.74004C4.06357 0.330376 4.37723 0.444946 4.62254 0.655916C4.86786 0.866885 5.02809 1.15986 5.07337 1.48023C5.15779 2.12027 5.31434 2.74871 5.54004 3.35356C5.62973 3.59218 5.64915 3.8515 5.59597 4.10081C5.5428 4.35012 5.41928 4.57897 5.24004 4.76023L4.39337 5.60689C5.34241 7.27592 6.72434 8.65786 8.39337 9.60689L9.24004 8.76023C9.4213 8.58099 9.65014 8.45746 9.89945 8.40429C10.1488 8.35112 10.4081 8.37053 10.6467 8.46023C11.2516 8.68593 11.88 8.84248 12.52 8.92689C12.8439 8.97258 13.1396 9.1357 13.3511 9.38522C13.5625 9.63475 13.6748 9.95328 13.6667 10.2802Z" fill="white"/>
</svg>
